# xmcd
#
# Track frame offsets: 
#        183
#        14490
#        27730
#        38155
#        54185
#        73830
#        88343
#        105198
#        124535
#        138020
#
# Disc length: 2064 seconds
#
# Revision: 4
# Processed by: cddbd v1.5.2PL0 Copyright (c) Steve Scherf et al.
# Submitted via: ExactAudioCopy v1.0b3
#
DISCID=7f080e0a
DTITLE=Kathy Mattea - Willow In The Wind
DYEAR=1989
DGENRE=Country
TTITLE0=Come From The Heart
TTITLE1=Here's Hopin'
TTITLE2=Burnin' Old Memories
TTITLE3=She Came From Fort Worth
TTITLE4=True North
TTITLE5=Hills Of Alabam'
TTITLE6=Willow In The Wind
TTITLE7=Love Chooses You
TTITLE8=I'll Take Care Of You
TTITLE9=Where've You Been
EXTD=
EXTT0=
EXTT1=
EXTT2=
EXTT3=
EXTT4=
EXTT5=
EXTT6=
EXTT7=
EXTT8=
EXTT9=
PLAYORDER=
